<?xml version="1.0" encoding="utf-8"?>
<!-- Generated by IcoMoon.io -->
<!DOCTYPE svg PUBLIC "-//W3C//DTD SVG 1.1//EN" "http://www.w3.org/Graphics/SVG/1.1/DTD/svg11.dtd">
<svg version="1.1" xmlns="http://www.w3.org/2000/svg" xmlns:xlink="http://www.w3.org/1999/xlink" width="32" height="32" viewBox="0 0 32 32">
<path fill="#444444" d="M16 30.063q-2.281 0-4.438-0.719t-3.875-2.016-3.016-3.016-2.016-3.875-0.719-4.438q0-2.844 1.125-5.453t3-4.484 4.484-3 5.453-1.125 5.453 1.125 4.484 3 3 4.484 1.125 5.453q0 5.344-3.563 9.344-3.406 3.844-8.5 4.563-1 0.156-2 0.156zM23.188 10q0-0.156-0.016-0.281t-0.063-0.25-0.109-0.234-0.156-0.203q-0.406-0.406-1.031-0.406h-11.25q-0.594 0-0.969 0.375-0.125 0.125-0.203 0.234t-0.125 0.234-0.078 0.25 0 0.281v12.156q-0.031 0.531 0.406 0.969 0.406 0.375 0.969 0.406h11.25q0.594 0 1-0.438 0.375-0.406 0.375-0.938v-12.156zM21.25 22.125h-10.094q-0.219 0-0.406-0.156-0.094-0.094-0.125-0.188t-0.031-0.188v-11q0-0.094 0.031-0.203t0.125-0.203q0.156-0.156 0.406-0.156h10.094q0.063 0 0.125 0.031h0.063q0.063 0.031 0.109 0.063t0.078 0.063q0.156 0.156 0.156 0.406v11q0 0.063-0.031 0.094v0.125q-0.031 0.031-0.063 0.078t-0.063 0.078q-0.125 0.156-0.375 0.156zM21 12.781q-0.188-0.188-0.5-0.188h-2.344v-1.313q0-0.188-0.063-0.328t-0.156-0.266q-0.063-0.063-0.141-0.094t-0.172-0.063-0.188-0.031q-0.313 0.031-0.5 0.219-0.188 0.219-0.188 0.563v1.313h-4.688q-0.156 0-0.281 0.047t-0.219 0.141q-0.188 0.219-0.188 0.5 0 0.125 0.047 0.25t0.141 0.219q0.156 0.188 0.5 0.188h4.094q-0.563 0.969-0.938 1.469-0.219 0.281-0.438 0.547t-0.469 0.516q-0.469 0.406-0.969 0.875-0.531 0.406-1.656 1.188-0.25 0.156-0.344 0.469-0.031 0.281 0.156 0.531t0.469 0.344q0.125 0.031 0.266 0t0.297-0.156q0.75-0.531 1.531-1.188 0.688-0.625 1.125-1.094 0.563-0.563 1.125-1.406 0.188-0.281 0.438-0.625v4q0 0.344-0.156 0.469-0.156 0.156-0.344 0.156-0.219 0.031-0.438 0-0.188 0-0.656-0.094-0.344-0.063-0.625 0.063-0.063 0.031-0.125 0.094t-0.109 0.141-0.078 0.203q-0.063 0.25 0.063 0.531 0.031 0.063 0.078 0.109l0.078 0.078 0.125 0.063q0.031 0.031 0.094 0.047t0.156 0.047q0.563 0.125 0.906 0.156h1q0.188 0 0.359-0.063t0.328-0.188q0.188-0.125 0.328-0.281t0.234-0.344q0.063-0.094 0.094-0.219t0.063-0.281 0.031-0.313v-5.844h2.344q0.156 0 0.281-0.047t0.219-0.141q0.031-0.063 0.078-0.141t0.063-0.172 0.047-0.156q0-0.313-0.188-0.5z"></path>
</svg>
