<?xml version="1.0" encoding="utf-8"?>
<!-- Generated by IcoMoon.io -->
<!DOCTYPE svg PUBLIC "-//W3C//DTD SVG 1.1//EN" "http://www.w3.org/Graphics/SVG/1.1/DTD/svg11.dtd">
<svg version="1.1" xmlns="http://www.w3.org/2000/svg" xmlns:xlink="http://www.w3.org/1999/xlink" width="32" height="32" viewBox="0 0 32 32">
<path fill="#444444" d="M18.688 28.219h8.656q0.125-0.031 0.25-0.094t0.219-0.125l0.125-0.188q0.094-0.063 0.125-0.125l0.125-0.125 0.063-0.125v-9.969h-9.563v10.75zM7.531 27.406q0.281 0.656 0.906 0.813h8.688v-10.75h-9.594v9.938zM30.063 11.875q-0.063-0.313-0.266-0.547t-0.359-0.297l-0.188-0.063h-2.969q0.188-0.156 0.375-0.328t0.375-0.406 0.344-0.516q0.5-0.813 0.516-1.844t-0.469-1.969-1.313-1.5-1.891-0.625q-1-0.063-1.969 0.531-0.344 0.219-0.703 0.563t-0.703 0.75q-0.5 0.656-0.859 1.328t-0.547 1.203q-0.031 0.031-0.047 0.094t-0.047 0.094q-0.781-0.313-1.563-0.281h-0.031q-0.406 0-0.797 0.063t-0.766 0.219q-0.063-0.219-0.172-0.5t-0.391-0.844-0.641-1.047-0.813-0.969-1.063-0.766-1.297-0.281q-1 0-1.813 0.328t-1.266 0.859-0.672 0.953-0.344 0.828l1.094 0.375q0.031-0.094 0.078-0.25t0.266-0.531 0.5-0.656 0.813-0.531 1.188-0.25q0.719-0.031 1.375 0.438t1.109 1.219 0.688 1.25 0.391 0.938q-0.219 0.156-0.328 0.328t-0.109 0.313 0.094 0.297 0.281 0.313q-0.875 0.125-1.391 0.031t-1.281-0.438-1.375-0.703-1.641-0.813-2.094-0.703q-0.906-0.188-1.672-0.141t-1.297 0.125-0.969 0.281-0.703 0.359-0.453 0.359-0.234 0.281-0.078 0.109q0.031 0.031-0.016 0.266t0.188 0.422 0.703 0.063q1.844-1.688 5.281-0.594 0.375 0.125 1.922 0.844t2.453 1.063h-5.969q-0.063 0-0.188 0.063t-0.344 0.297-0.281 0.547v3.594h11.406v-4.5h1.563v4.5h11.375q0 0.031-0.016-0.734t-0.016-1.578 0.031-1.281zM17.813 10.25q-0.656 0-1.141-0.203t-0.484-0.5 0.484-0.5 1.156-0.203 1.141 0.203 0.469 0.516q0 0.188-0.219 0.344t-0.594 0.25-0.813 0.094zM24.438 10.625v-0.031l-4.688-0.031q1.031-0.469 1.031-1 0-0.094-0.047-0.188t-0.109-0.188-0.172-0.188-0.266-0.188l0.156-0.313q0.156-0.406 0.406-0.891t0.75-1.234 1.203-1.219 1.453-0.406q0.656 0.063 1.188 0.359t0.781 0.594 0.438 0.641q0.344 0.719 0.344 1.5t-0.344 1.344q-0.25 0.438-0.563 0.734t-0.547 0.422-0.484 0.188-0.344 0.078-0.188 0.016z"></path>
</svg>
