<?xml version="1.0" encoding="utf-8"?>
<!-- Generated by IcoMoon.io -->
<!DOCTYPE svg PUBLIC "-//W3C//DTD SVG 1.1//EN" "http://www.w3.org/Graphics/SVG/1.1/DTD/svg11.dtd">
<svg version="1.1" xmlns="http://www.w3.org/2000/svg" xmlns:xlink="http://www.w3.org/1999/xlink" width="32" height="32" viewBox="0 0 32 32">
<path fill="#444444" d="M28 7.531q0.219 0 0.391 0.016t0.328 0.047 0.281 0.094l0.25 0.063 0.375 0.219q0.094 0.063 0.156 0.141t0.094 0.141q0.188 0.313 0.156 0.656v0.25q0 0.063-0.031 0.188t-0.063 0.188l-0.375 1.031-0.594 1.719-0.656 1.844q-0.375 1.125-0.5 1.469-0.188 0.531-0.422 0.922t-0.516 0.609q-0.563 0.438-1.375 0.438h-14.969l0.438 2.5h14.344q1.375 0 1.375 1.156 0 0.281-0.078 0.516t-0.203 0.453q-0.25 0.406-1.063 0.406h-14.938q-0.188 0-0.359-0.031t-0.313-0.078-0.266-0.141q-0.375-0.25-0.625-0.656-0.063-0.094-0.125-0.203t-0.125-0.203q-0.094-0.219-0.188-0.469-0.156-0.594-0.219-0.906l-0.156-0.813-0.344-1.594-0.406-2.156-0.469-2.406-1.219-6.25h-2.125q-0.438 0-0.688-0.188-0.281-0.219-0.531-0.5-0.063-0.188-0.141-0.344t-0.109-0.313-0.047-0.328-0.016-0.266q0-0.281 0.094-0.516t0.281-0.422q0.25-0.156 0.5-0.25 0.125-0.063 0.266-0.078t0.297-0.016h2.875q0.563 0 0.906 0.156l0.313 0.188q0.125 0.094 0.25 0.219 0.188 0.281 0.25 0.531l0.188 0.5q0 0.063 0.031 0.172t0.063 0.297v0.156l0.125 0.781 0.156 1.063h19.469zM23.219 23.406h0.25q0.063 0 0.141 0.016t0.141 0.016q0.25 0.063 0.5 0.156 0.188 0.063 0.328 0.141t0.281 0.188 0.266 0.234q0.375 0.375 0.594 0.813 0.188 0.469 0.188 0.969 0 0.094-0.016 0.188t-0.016 0.172-0.031 0.172q-0.031 0.281-0.125 0.469-0.219 0.438-0.594 0.844-0.188 0.188-0.391 0.313t-0.484 0.219q-0.469 0.219-1.031 0.219t-1.031-0.219q-0.5-0.219-0.813-0.531-0.063-0.031-0.094-0.078t-0.078-0.109-0.078-0.109-0.078-0.109-0.078-0.125l-0.063-0.063q-0.031-0.063-0.047-0.125t-0.047-0.125q-0.219-0.469-0.219-1 0-0.094 0.031-0.219v-0.25q0.031-0.125 0.078-0.25t0.109-0.25q0.094-0.219 0.234-0.422t0.328-0.391q0.156-0.188 0.375-0.328t0.438-0.234q0.156-0.063 0.328-0.109t0.344-0.063 0.359-0.016zM11.375 23.344h0.188q0.094 0 0.172 0.016t0.172 0.031 0.172 0.031 0.172 0.047 0.156 0.063q0.469 0.188 0.844 0.563 0.125 0.094 0.203 0.188t0.141 0.188 0.125 0.203 0.125 0.234q0.094 0.25 0.156 0.5t0.063 0.5q0 0.5-0.219 0.969-0.063 0.156-0.156 0.297t-0.203 0.281-0.234 0.266q-0.375 0.344-0.859 0.547t-1.016 0.203q-0.563 0-1.031-0.188-0.469-0.219-0.844-0.563-0.375-0.406-0.563-0.844-0.188-0.469-0.188-0.984t0.188-0.984q0.094-0.25 0.234-0.438t0.328-0.375l0.281-0.219 0.25-0.188q0.156-0.094 0.313-0.156 0.125-0.031 0.25-0.094 0.063-0.031 0.125-0.047t0.125-0.016q0.125 0 0.266-0.016t0.266-0.016z"></path>
</svg>
