<?xml version="1.0" encoding="utf-8"?>
<!-- Generated by IcoMoon.io -->
<!DOCTYPE svg PUBLIC "-//W3C//DTD SVG 1.1//EN" "http://www.w3.org/Graphics/SVG/1.1/DTD/svg11.dtd">
<svg version="1.1" xmlns="http://www.w3.org/2000/svg" xmlns:xlink="http://www.w3.org/1999/xlink" width="32" height="32" viewBox="0 0 32 32">
<path fill="#444" d="M29.719 16.531l-15.5-14.156q-0.781-0.719-1.813-0.469l-8.094 1.813q-0.625 0.156-1.063 0.625t-0.531 1.125l-1.063 8.25q-0.156 1.031 0.625 1.75l15.5 14.156q0.625 0.563 1.469 0.516t1.406-0.672l9.188-10.063q0.375-0.406 0.484-0.938t-0.047-1.047-0.563-0.891zM9.125 9.75q-0.563 0.625-1.422 0.656t-1.5-0.547-0.672-1.438 0.563-1.484 1.438-0.672 1.5 0.547q0.313 0.281 0.469 0.672t0.172 0.781-0.125 0.781-0.422 0.703zM12.641 15.391q-0.484-0.547-0.484-1.422 0-0.969 0.516-1.547t1.391-0.578q0.844 0 1.313 0.531 0.156 0.188 0.25 0.406t0.156 0.484 0.063 0.578-0.063 0.578-0.172 0.5-0.297 0.422q-0.5 0.594-1.375 0.594-0.813 0-1.297-0.547zM13.375 19.906l5.031-7.938h0.844l-5.031 7.938h-0.844zM20 19.406q-0.156 0.188-0.375 0.313t-0.453 0.188-0.516 0.063q-0.125 0-0.219-0.031h-0.25l-0.188-0.063t-0.172-0.078-0.172-0.109-0.172-0.125-0.141-0.125q-0.469-0.563-0.469-1.438 0-0.313 0.047-0.594t0.172-0.516 0.281-0.422q0.531-0.594 1.375-0.594 0.438 0 0.766 0.141t0.563 0.406 0.344 0.625 0.109 0.859v0.25q0 0.125-0.031 0.219l-0.063 0.25q-0.031 0.094-0.078 0.203t-0.094 0.203-0.109 0.188-0.156 0.188zM14.781 14.906q0.281-0.375 0.281-1.031 0-0.219-0.031-0.406t-0.094-0.344-0.156-0.281q-0.281-0.344-0.75-0.344-0.25 0-0.453 0.094t-0.359 0.281q-0.281 0.375-0.281 1.031 0 0.344 0.063 0.594t0.219 0.438q0.281 0.344 0.781 0.344 0.156 0 0.297-0.047t0.266-0.125 0.219-0.203zM18.719 16.531q-0.156 0-0.313 0.047t-0.266 0.125-0.203 0.203q-0.313 0.375-0.313 1.063 0 0.188 0.031 0.375t0.109 0.344 0.172 0.281q0.125 0.156 0.328 0.25t0.422 0.094q0.281 0 0.469-0.094t0.328-0.281 0.203-0.438 0.063-0.594-0.063-0.594-0.219-0.406q-0.25-0.375-0.75-0.375z"></path>
</svg>
