<?xml version="1.0" encoding="utf-8"?>
<!-- Generated by IcoMoon.io -->
<!DOCTYPE svg PUBLIC "-//W3C//DTD SVG 1.1//EN" "http://www.w3.org/Graphics/SVG/1.1/DTD/svg11.dtd">
<svg version="1.1" xmlns="http://www.w3.org/2000/svg" xmlns:xlink="http://www.w3.org/1999/xlink" width="32" height="32" viewBox="0 0 32 32">
<path fill="#444444" d="M27.469 10.313q-0.094 0.094-0.188 0.172t-0.188 0.109-0.172 0.047-0.172 0-0.172-0.047-0.172-0.109-0.219-0.172l-4.656-4.688q-0.375-0.344-0.375-0.641t0.375-0.641l1.906-1.906q0.219-0.25 0.531-0.328t0.625 0 0.531 0.328l4.281 4.25q0.344 0.344 0.344 0.844t-0.344 0.844zM25.969 11.844l-13.594 13.563q-0.094 0.094-0.203 0.141t-0.219 0.047-0.234-0.047-0.188-0.141l-5.125-5.094q-0.156-0.188-0.156-0.438t0.156-0.406l13.594-13.594q0.125-0.125 0.281-0.156t0.297 0 0.266 0.156l5.125 5.094q0.031 0.063 0.078 0.141t0.063 0.141 0.016 0.141-0.016 0.156-0.063 0.156-0.078 0.141zM8.719 15.156l-1.906-1.875 3.563-3.594-0.906-0.938-3.594 3.594-1.688-1.688 3.563-3.594-0.938-0.938-3.563 3.594-0.906-0.875q-0.406-0.375-0.406-0.938 0-0.281 0.109-0.5t0.297-0.438l4.531-4.469q0.375-0.406 0.938-0.406t0.938 0.406l6.375 6.281-6.344 6.281q0 0.031-0.031 0.063zM3.125 29.125l-0.469 0.188-0.125-0.125 0.156-0.5zM3.406 26.656l1.781 1.781-1.875 0.656-0.563-0.563zM3.594 26l1.969-5.688 5.969 5.938-5.719 1.969zM23.281 16.875l6.375 6.313q0.188 0.188 0.297 0.438t0.109 0.5-0.109 0.484-0.297 0.422l-4.531 4.5q-0.375 0.375-0.938 0.375t-0.938-0.375l-1-0.969 3.281-3.313-0.906-0.938-3.313 3.313-1.719-1.688 3.313-3.313-0.938-0.938-3.281 3.313-1.813-1.781q0.031-0.031 6.406-6.344z"></path>
</svg>
