<?xml version="1.0" encoding="utf-8"?>
<!-- Generated by IcoMoon.io -->
<!DOCTYPE svg PUBLIC "-//W3C//DTD SVG 1.1//EN" "http://www.w3.org/Graphics/SVG/1.1/DTD/svg11.dtd">
<svg version="1.1" xmlns="http://www.w3.org/2000/svg" xmlns:xlink="http://www.w3.org/1999/xlink" width="32" height="32" viewBox="0 0 32 32">
<path fill="#444444" d="M27.906 26.656h-23.813q-0.438 0-0.844-0.203t-0.688-0.516-0.453-0.766-0.172-0.953v-11.188h28.125v11.188q0 1-0.625 1.719t-1.531 0.719zM13.25 15.969l-1.75 5.313-0.125 0.5h-0.031l-0.125-0.5-1.719-5.313h-1.313l2.594 7.281h1.156l2.594-7.281h-1.281zM16.594 15.969h-1.219v7.281h1.219v-7.281zM22.922 16.594q-0.672-0.625-1.891-0.625h-2.781v7.281h1.219v-2.781h1.563q1.219 0 1.891-0.609t0.672-1.641q0-1-0.672-1.625zM21.031 19.5h-1.563v-2.563h1.563q0.688 0 1.016 0.375t0.328 0.922-0.328 0.906-1.016 0.359zM1.938 7.781q0-1 0.625-1.719t1.531-0.719h23.813q0.906 0 1.531 0.719t0.625 1.719v2.688h-28.125v-2.688z"></path>
</svg>
