<?xml version="1.0" encoding="utf-8"?>
<!-- Generated by IcoMoon.io -->
<!DOCTYPE svg PUBLIC "-//W3C//DTD SVG 1.1//EN" "http://www.w3.org/Graphics/SVG/1.1/DTD/svg11.dtd">
<svg version="1.1" xmlns="http://www.w3.org/2000/svg" xmlns:xlink="http://www.w3.org/1999/xlink" width="32" height="32" viewBox="0 0 32 32">
<path fill="#444444" d="M27.5 28.781h-23q-1.063 0-1.813-0.75t-0.75-1.813v-20.438q0-1.063 0.75-1.813t1.813-0.75h23q0.688 0 1.281 0.344t0.938 0.938 0.344 1.281v20.438q0 0.688-0.344 1.281t-0.938 0.938-1.281 0.344zM10.469 15.875q0-0.844-0.594-1.422t-1.406-0.578h-0.688q-0.813 0-1.406 0.578t-0.594 1.422v0.688q0 0.813 0.594 1.406t1.406 0.594h0.688q0.813 0 1.406-0.594t0.594-1.406v-0.688zM18.563 15.875q0-0.844-0.594-1.422t-1.406-0.578h-0.688q-0.813 0-1.406 0.578t-0.594 1.422v0.688q0 0.531 0.266 1t0.734 0.734 1 0.266h0.688q0.813 0 1.406-0.594t0.594-1.406v-0.688zM26.656 15.875q0-0.844-0.594-1.422t-1.438-0.578h-0.656q-0.531 0-1 0.266t-0.734 0.734-0.266 1v0.688q0 0.313 0.094 0.625t0.281 0.547 0.438 0.422 0.563 0.297 0.625 0.109h0.656q0.406 0 0.781-0.156t0.641-0.438 0.438-0.641 0.172-0.766v-0.688z"></path>
</svg>
