<?xml version="1.0" encoding="utf-8"?>
<!-- Generated by IcoMoon.io -->
<!DOCTYPE svg PUBLIC "-//W3C//DTD SVG 1.1//EN" "http://www.w3.org/Graphics/SVG/1.1/DTD/svg11.dtd">
<svg version="1.1" xmlns="http://www.w3.org/2000/svg" xmlns:xlink="http://www.w3.org/1999/xlink" width="32" height="32" viewBox="0 0 32 32">
<path fill="#444444" d="M28.125 22.313h-2.969l-1.625 2.125-2.844-2.125-8.969 0.031q-0.531-0.031-0.984-0.313t-0.703-0.719-0.25-0.938v-13.438q0-0.813 0.563-1.375t1.375-0.563h16.406q0.781 0 1.359 0.563t0.578 1.375v13.438q0 0.813-0.578 1.375t-1.359 0.563zM19.281 19.5h1.531v-1.563h-1.531v1.563zM22.656 9q-0.344-0.281-0.734-0.484t-0.859-0.313-1-0.109q-1.531 0-2.469 0.844t-1.125 2.406l1.406 0.156q0.188-1.156 0.766-1.703t1.453-0.547 1.5 0.609 0.625 1.391q0 0.156-0.031 0.297t-0.078 0.266-0.109 0.25q-0.094 0.188-0.328 0.453t-0.578 0.578q-0.719 0.625-1 0.938-0.156 0.25-0.297 0.469t-0.234 0.438q-0.063 0.156-0.094 0.313t-0.063 0.328-0.047 0.359-0.016 0.406v0.406h1.313q0.031-0.844 0.125-1.188 0.094-0.375 0.281-0.656 0.125-0.125 0.328-0.359t0.547-0.516q1-0.875 1.344-1.5t0.344-1.375q0-1.25-0.969-2.156zM16.813 23.625v0.531q0 0.594-0.422 1.016t-0.984 0.422h-6.594l-2.094 1.531-1.188-1.531h-2.156q-0.594 0-1.016-0.422t-0.422-1.016v-9.844q0-0.594 0.422-1.016t1.016-0.422l5.063-0.125v8.438q-0.063 1.219 0.406 1.719 0.125 0.156 0.297 0.266t0.328 0.188 0.328 0.125 0.313 0.078 0.25 0.047 0.172 0.016h6.281z"></path>
</svg>
