<?xml version="1.0" encoding="utf-8"?>
<!-- Generated by IcoMoon.io -->
<!DOCTYPE svg PUBLIC "-//W3C//DTD SVG 1.1//EN" "http://www.w3.org/Graphics/SVG/1.1/DTD/svg11.dtd">
<svg version="1.1" xmlns="http://www.w3.org/2000/svg" xmlns:xlink="http://www.w3.org/1999/xlink" width="32" height="32" viewBox="0 0 32 32">
<path fill="#444444" d="M22.438 7.5q0-0.594 0.438-1.031t1.031-0.438 1.031 0.438q0.219 0.188 0.328 0.469t0.109 0.563q0 0.594-0.438 1.031t-1.031 0.438q-0.281 0-0.563-0.109t-0.469-0.328q-0.438-0.438-0.438-1.031zM18.563 5.063q0-0.219 0.063-0.438t0.172-0.422 0.266-0.391q0.531-0.5 1.25-0.5t1.234 0.516 0.516 1.234-0.516 1.234-1.234 0.516-1.234-0.516-0.516-1.234zM13.219 4.281q0-0.844 0.594-1.438 0.156-0.156 0.313-0.266t0.344-0.188 0.391-0.109 0.391-0.031q0.875 0 1.469 0.594 0.188 0.188 0.313 0.422t0.203 0.5 0.078 0.516q0 0.406-0.156 0.781t-0.438 0.656q-0.156 0.156-0.328 0.266t-0.344 0.188-0.375 0.125-0.422 0.047q-0.844 0-1.438-0.609t-0.594-1.453zM6.625 4.594q0-1.094 0.781-1.875 0.375-0.375 0.859-0.578t1-0.203 1 0.203 0.859 0.578q0.781 0.781 0.781 1.859t-0.781 1.859-1.875 0.781q-0.5 0-0.984-0.203t-0.859-0.578q-0.781-0.781-0.781-1.844zM18.906 7.844h-6.906q-1.75 0.125-2.969 1.406t-1.219 3.063q0 1.188 0.563 2.188t1.531 1.625l0.094 0.063 0.406 0.344q1.563 1.938-0.25 6.719l-0.25 0.625q-0.156 0.406-0.234 0.828t-0.078 0.859q0 1.875 1.313 3.188t3.156 1.313q1.625 0 2.844-1.031v0q3.406-2.813 5.391-6.828t2.047-8.609v-0.156q0-2.281-1.578-3.906t-3.859-1.688z"></path>
</svg>
