<?xml version="1.0" encoding="utf-8"?>
<!-- Generated by IcoMoon.io -->
<!DOCTYPE svg PUBLIC "-//W3C//DTD SVG 1.1//EN" "http://www.w3.org/Graphics/SVG/1.1/DTD/svg11.dtd">
<svg version="1.1" xmlns="http://www.w3.org/2000/svg" xmlns:xlink="http://www.w3.org/1999/xlink" width="32" height="32" viewBox="0 0 32 32">
<path fill="#444" d="M24.938 30.063h-17.875q-1.594 0-2.719-1.125t-1.125-2.719v-18.188q5.906 2.688 12.5 2.688 6.531 0 13.063-2.781v18.281q0 1.031-0.516 1.922t-1.406 1.406-1.922 0.516zM20.125 21.656q0-0.156-0.109-0.266t-0.234-0.109h-3.219v-1.375h3.219q0.125 0 0.234-0.094t0.109-0.25v-0.688q0-0.094-0.047-0.172t-0.125-0.125-0.172-0.047h-2.688l2.906-3.063q0.188-0.25 0-0.5l-0.469-0.469q-0.219-0.25-0.438 0l-3.219 3.375-3.25-3.375q-0.063-0.063-0.141-0.094t-0.156 0-0.141 0.094l-0.469 0.469q-0.219 0.25 0 0.5l2.938 3.063h-2.688q-0.094 0-0.172 0.047t-0.125 0.125-0.047 0.172v0.688q0 0.344 0.344 0.344h3.188v1.375h-3.188q-0.156 0-0.25 0.109t-0.094 0.266v0.688q0 0.125 0.094 0.234t0.25 0.109h3.188v2.438q0 0.125 0.109 0.234t0.234 0.109h0.719q0.156 0 0.25-0.109t0.094-0.234v-2.438h3.219q0.094 0 0.172-0.047t0.125-0.125 0.047-0.172v-0.688zM3.281 5.25q0.125-0.906 0.656-1.672t1.359-1.203 1.766-0.438h17.875q1.438 0 2.5 0.938t1.281 2.313q-2.5 1.156-5.016 1.875t-4.625 0.969-4.203 0.188-3.719-0.344-3.203-0.75-2.641-0.906-2.031-0.969z"></path>
</svg>
