<?xml version="1.0" encoding="utf-8"?>
<!-- Generated by IcoMoon.io -->
<!DOCTYPE svg PUBLIC "-//W3C//DTD SVG 1.1//EN" "http://www.w3.org/Graphics/SVG/1.1/DTD/svg11.dtd">
<svg version="1.1" xmlns="http://www.w3.org/2000/svg" xmlns:xlink="http://www.w3.org/1999/xlink" width="32" height="32" viewBox="0 0 32 32">
<path fill="#444444" d="M27.25 28.563h-22.5q-1.156 0-1.984-0.813t-0.828-1.969v-15.375h28.125v15.375q0 1.563-1.375 2.375-0.688 0.406-1.438 0.406zM20.094 14.563l-5.75 5.344-1.906-2.188-1.344 1.188 3.063 3.625 7.156-6.688zM1.938 7.625q0-1.156 0.828-1.969t1.984-0.813h2.969q0.219-0.625 0.75-1.016t1.219-0.391q0.438 0 0.844 0.188t0.688 0.5 0.438 0.719h8.688q0.25-0.625 0.781-1.016t1.188-0.391q0.469 0 0.859 0.188t0.688 0.5 0.422 0.719h2.969q1.156 0 1.984 0.813t0.828 1.969v1.406h-28.125v-1.406zM21.625 7.625h1.406v-2.781h-1.406v2.781zM8.969 7.625h1.406v-2.781h-1.406v2.781z"></path>
</svg>
