<?xml version="1.0" encoding="utf-8"?>
<!-- Generated by IcoMoon.io -->
<!DOCTYPE svg PUBLIC "-//W3C//DTD SVG 1.1//EN" "http://www.w3.org/Graphics/SVG/1.1/DTD/svg11.dtd">
<svg version="1.1" xmlns="http://www.w3.org/2000/svg" xmlns:xlink="http://www.w3.org/1999/xlink" width="32" height="32" viewBox="0 0 32 32">
<path fill="#444444" d="M29.281 19.063q0.219 0.188 0.359 0.313t0.234 0.297 0.141 0.391 0.047 0.531v4.594q0 0.969-0.688 1.641t-1.656 0.672h-23.438q-0.969 0-1.656-0.672t-0.688-1.641v-4.594q0-0.25 0.063-0.5t0.266-0.547 0.516-0.484q2.281-0.75 2.281-3.063 0-1.094-0.688-1.859t-1.656-1.203q-0.156-0.094-0.297-0.203t-0.219-0.219-0.141-0.234-0.078-0.281-0.031-0.281-0.016-0.313v-4.594q0-0.969 0.688-1.641t1.656-0.672h23.438q0.969 0 1.656 0.672t0.688 1.641v4.594q0 0.563-0.141 0.875t-0.641 0.656q-1.344 0.688-1.844 1.344t-0.5 1.719q0 0.719 0.234 1.25t0.734 0.953 1.375 0.859zM20.688 17.906q0-0.156-0.109-0.266t-0.297-0.109h-3.5v-1.531h3.5q0.188 0 0.297-0.109t0.109-0.266v-0.781q0-0.156-0.109-0.266t-0.297-0.109h-2.938l3.188-3.375q0.25-0.281 0-0.531l-0.5-0.531q-0.25-0.281-0.5 0l-3.531 3.719-3.563-3.719q-0.25-0.281-0.5 0l-0.469 0.531q-0.25 0.25 0 0.531l3.188 3.375h-2.938q-0.125 0-0.219 0.047t-0.141 0.141-0.047 0.188v0.781q0 0.375 0.406 0.375h3.5v1.531h-3.5q-0.188 0-0.297 0.109t-0.109 0.266v0.781q0 0.156 0.109 0.266t0.297 0.109h3.5v2.688q0 0.063 0.016 0.125t0.063 0.109 0.094 0.078 0.094 0.047 0.141 0.016h0.75q0.188 0 0.297-0.109t0.109-0.266v-2.688h3.5q0.188 0 0.297-0.109t0.109-0.266v-0.781z"></path>
</svg>
