<?xml version="1.0" encoding="utf-8"?>
<!-- Generated by IcoMoon.io -->
<!DOCTYPE svg PUBLIC "-//W3C//DTD SVG 1.1//EN" "http://www.w3.org/Graphics/SVG/1.1/DTD/svg11.dtd">
<svg version="1.1" xmlns="http://www.w3.org/2000/svg" xmlns:xlink="http://www.w3.org/1999/xlink" width="32" height="32" viewBox="0 0 32 32">
<path fill="#444444" d="M26.813 8.438h-22q-0.531 0-0.891-0.078t-0.625-0.328-0.266-0.688l23.781-1.063v-2.156q0-1.25-0.859-1.719t-2.391-0.469l-19.438 3.25q-1.219 0.281-1.703 0.797t-0.484 1.359v19.469q0 1.344 0.953 2.297t2.297 0.953h21.625q1.344 0 2.297-0.953t0.953-2.297v-15.125q0-0.906-0.438-1.641t-1.188-1.172-1.625-0.438zM25.719 21.406q-0.594 0-1.078-0.297t-0.781-0.781-0.297-1.078q0-0.906 0.641-1.531t1.516-0.625q0.438 0 0.844 0.172t0.688 0.453 0.453 0.688 0.172 0.844q0 0.875-0.625 1.516t-1.531 0.641z"></path>
</svg>
