<?xml version="1.0" encoding="utf-8"?>
<!-- Generated by IcoMoon.io -->
<!DOCTYPE svg PUBLIC "-//W3C//DTD SVG 1.1//EN" "http://www.w3.org/Graphics/SVG/1.1/DTD/svg11.dtd">
<svg version="1.1" xmlns="http://www.w3.org/2000/svg" xmlns:xlink="http://www.w3.org/1999/xlink" width="33" height="32" viewBox="0 0 33 32">
<path fill="#444444" d="M11.268 18.132h-4.32q-0.424 0-0.748-0.325t-0.325-0.762 0.325-0.762 0.748-0.325h3.247v-3.219q0-0.452 0.325-0.777t0.762-0.325 0.762 0.325 0.325 0.777v4.32q0 0.424-0.325 0.748t-0.777 0.325v0zM23.098 21.181q-1.553 0-2.753 0.974t-1.539 2.442h-4.179q-0.367-1.468-1.553-2.442t-2.739-0.974q-1.835 0-3.134 1.299t-1.299 3.134 1.299 3.134 3.134 1.299q1.496 0 2.668-0.932t1.567-2.344h4.263q0.395 1.412 1.567 2.329t2.696 0.918q1.807 0 3.106-1.285t1.299-3.12-1.299-3.134-3.106-1.299v0zM10.336 27.873q-0.96 0-1.624-0.663t-0.663-1.595 0.663-1.595 1.609-0.663 1.609 0.663 0.663 1.595-0.663 1.595-1.595 0.663v0zM23.098 27.873q-0.96 0-1.624-0.663t-0.663-1.595 0.663-1.595 1.609-0.663 1.609 0.663 0.663 1.595-0.663 1.595-1.595 0.663v0zM28.548 1.953h-15.67q-1.101 0-1.892 0.776t-0.791 1.906v3.106l-6.551 3.303q-0.085 0.028-0.141 0.085-1.892 1.327-1.892 3.755v10.87q0 0.452 0.311 0.762t0.762 0.311 0.762-0.311 0.311-0.762v-10.87q0-1.271 0.932-1.948l7.087-3.558q0.028 0 0.056-0.042t0.056-0.042q0.141-0.113 0.169-0.141t0.113-0.169 0.113-0.198 0.028-0.226q0.028 0 0.042-0.056t0.014-0.085v-3.783q0-0.226 0.155-0.381t0.353-0.155h15.67q0.452 0 0.762 0.325t0.311 0.777v20.47q0 0.452 0.311 0.776t0.762 0.325 0.776-0.325 0.325-0.776v-20.47q0-1.355-0.96-2.301t-2.287-0.946v0z"></path>
</svg>
