<?xml version="1.0" encoding="utf-8"?>
<!-- Generated by IcoMoon.io -->
<!DOCTYPE svg PUBLIC "-//W3C//DTD SVG 1.1//EN" "http://www.w3.org/Graphics/SVG/1.1/DTD/svg11.dtd">
<svg version="1.1" xmlns="http://www.w3.org/2000/svg" xmlns:xlink="http://www.w3.org/1999/xlink" width="32" height="32" viewBox="0 0 32 32">
<path fill="#444444" d="M8.125 11.922h-0.125q-0.469-0.063-0.781-0.469l-1.188-1.594q-0.281-0.375-0.219-0.828t0.438-0.734 0.828-0.219 0.734 0.438l0.469 0.656 2.219-1.938q0.344-0.313 0.813-0.281t0.781 0.375 0.281 0.813-0.406 0.781l-3.125 2.719q-0.313 0.281-0.719 0.281zM25.094 10.828h-10.375q-0.469 0-0.797-0.328t-0.328-0.781 0.328-0.781 0.797-0.328h10.375q0.438 0 0.766 0.328t0.328 0.781-0.328 0.781-0.766 0.328zM8.125 18.484h-0.125q-0.5-0.063-0.781-0.469l-1.188-1.594q-0.281-0.375-0.219-0.828t0.438-0.734 0.828-0.219 0.734 0.438l0.469 0.625 2.219-1.906q0.344-0.313 0.813-0.281t0.781 0.375 0.281 0.813-0.406 0.781l-3.125 2.719q-0.313 0.281-0.719 0.281zM25.094 17.328h-10.375q-0.469 0-0.797-0.328t-0.328-0.797 0.328-0.797 0.797-0.328h10.375q0.438 0 0.766 0.328t0.328 0.797-0.328 0.797-0.766 0.328zM8.125 25.047q-0.063 0-0.125-0.031-0.469-0.031-0.781-0.438l-1.188-1.594q-0.281-0.375-0.219-0.828t0.438-0.734 0.828-0.219 0.734 0.438l0.469 0.625 2.219-1.938q0.344-0.281 0.813-0.25t0.781 0.375 0.281 0.813-0.406 0.781l-3.125 2.719q-0.313 0.281-0.719 0.281zM25.094 23.828h-10.375q-0.469 0-0.797-0.328t-0.328-0.797 0.328-0.797 0.797-0.328h10.375q0.438 0 0.766 0.328t0.328 0.797-0.328 0.797-0.766 0.328zM28.844 29.953h-25.688q-0.438 0-0.766-0.328t-0.328-0.797v-25.656q0-0.469 0.328-0.797t0.766-0.328h25.688q0.438 0 0.766 0.328t0.328 0.797v25.656q0 0.469-0.328 0.797t-0.766 0.328zM4.281 27.703h23.438v-23.406h-23.438v23.406z"></path>
</svg>
