<?xml version="1.0" encoding="utf-8"?>
<!-- Generated by IcoMoon.io -->
<!DOCTYPE svg PUBLIC "-//W3C//DTD SVG 1.1//EN" "http://www.w3.org/Graphics/SVG/1.1/DTD/svg11.dtd">
<svg version="1.1" xmlns="http://www.w3.org/2000/svg" xmlns:xlink="http://www.w3.org/1999/xlink" width="32" height="32" viewBox="0 0 32 32">
<path fill="#444444" d="M22.984 22q1.234 0 2.109-0.875t0.875-2.125-0.875-2.125-2.109-0.875-2.109 0.875-0.875 2.125 0.875 2.125 2.109 0.875zM21.969 18h2v2h-2v-2zM20.969 8.063v-6h-14.906q-1.656 0-2.844 1.188l-0.281 0.344q-0.875 1.094-0.875 2.469 0 0.094 0.063 0.469-0.063 0.344-0.063 0.531v19.906q0 1.563 1.094 2.266t2.906 0.703h19.906q1.781 0 2.875-0.703t1.094-2.266v-18.906h-8.969zM6.063 4.063h12.938v4h-12.938q-0.188 0-0.406-0.063l-0.031-0.031h-0.094q-0.125-0.031-0.219-0.063-0.031-0.031-0.156-0.063-0.094-0.063-0.156-0.109t-0.156-0.109q-0.063-0.031-0.125-0.094l-0.156-0.156q0-0.031-0.063-0.094-0.094-0.125-0.156-0.219l-0.031-0.031q-0.156-0.313-0.219-0.656v-0.031q-0.031-0.188-0.031-0.281 0-0.844 0.578-1.422t1.422-0.578zM27.938 22.969h-7.938q-0.844 0-1.422-0.578t-0.578-1.391v-4q0-0.813 0.578-1.391t1.422-0.578h7.938v7.938zM27.938 13.031h-7.938q-1.656 0-2.828 1.172t-1.172 2.797v4q0 1.625 1.172 2.797t2.828 1.172h7.938v2q0 0.344-0.109 0.563t-0.391 0.313-0.516 0.109-0.703 0.016h-20.438q-0.469 0-0.688-0.016t-0.516-0.109-0.406-0.313-0.109-0.563v-17.469q0.188 0.125 0.438 0.219 0.281 0.125 0.656 0.219 0.094 0 0.188 0.031 0.375 0.063 0.719 0.063h21.875v3z"></path>
</svg>
