<?xml version="1.0" encoding="utf-8"?>
<!-- Generated by IcoMoon.io -->
<!DOCTYPE svg PUBLIC "-//W3C//DTD SVG 1.1//EN" "http://www.w3.org/Graphics/SVG/1.1/DTD/svg11.dtd">
<svg version="1.1" xmlns="http://www.w3.org/2000/svg" xmlns:xlink="http://www.w3.org/1999/xlink" width="32" height="32" viewBox="0 0 32 32">
<path fill="#444444" d="M28.503 6.399l-11.611-4.729q-0.793-0.255-1.614 0l-11.781 4.729q-0.538 0.113-0.906 0.68t-0.368 1.133v13.764q0 1.274 1.076 1.813l11.781 6.344q0.198 0.368 0.92 0.368t0.892-0.17l11.781-6.344q1.104-0.566 1.104-1.813v-13.962q0-0.566-0.368-1.133t-0.906-0.68zM15.816 2.944h0.368l11.243 4.531-2.917 1.643-11.243-5.268zM8.198 6.031l11.243 5.607-3.455 1.813-11.413-5.976zM4.035 22.712q-0.368-0.368-0.368-0.538v-13.792l11.781 6.174v14.132zM28.503 22.174q0 0.142-0.113 0.34t-0.255 0.198l-11.413 6.146v-14.302l3.625-1.813v4.531q0 0.425 0.34 0.609t0.736-0.071l3.625-1.813q0.368-0.368 0.368-0.538v-5.438l3.087-1.643v13.792z"></path>
</svg>
