<?xml version="1.0" encoding="utf-8"?>
<!-- Generated by IcoMoon.io -->
<!DOCTYPE svg PUBLIC "-//W3C//DTD SVG 1.1//EN" "http://www.w3.org/Graphics/SVG/1.1/DTD/svg11.dtd">
<svg version="1.1" xmlns="http://www.w3.org/2000/svg" xmlns:xlink="http://www.w3.org/1999/xlink" width="32" height="32" viewBox="0 0 32 32">
<path fill="#444444" d="M5.023 22.489q-0.303 0-0.605-0.235l-2.992-2.454q-0.504-0.437-0.403-1.042 0.101-0.504 0.605-0.672l3.765-1.378q0.605-0.202 1.009 0.303 0.336 0.403 0.235 0.908l-0.773 3.765q-0.135 0.807-0.841 0.807zM27.834 16.672q-0.185 0-0.319-0.134t-0.134-0.303q0-3.429-2.084-6.169t-5.379-3.648q-0.403-0.101-0.303-0.521t0.538-0.319q3.597 0.975 5.867 3.95t2.269 6.707q0 0.168-0.134 0.303t-0.319 0.134zM17.832 6.082h-0.034q-0.269-0.034-0.572-0.034-0.168 0-0.303-0.118t-0.134-0.303 0.134-0.319 0.303-0.135q0.303 0 0.639 0.034 0.168 0 0.286 0.135t0.118 0.336q0 0.168-0.134 0.286t-0.303 0.118zM16.857 30.188q-5.312 0-9.313-3.496-0.269-0.235-0.303-0.605t0.218-0.639 0.605-0.303 0.622 0.202q3.53 3.059 8.17 3.059 3.396 0 6.253-1.664t4.522-4.522 1.664-6.236-1.664-6.236-4.522-4.522-6.236-1.664-6.236 1.664-4.522 4.522-1.664 6.253q0 0.807 0.101 1.58 0.034 0.37-0.185 0.656t-0.588 0.336-0.656-0.185-0.319-0.572q-0.135-0.908-0.135-1.815 0-3.866 1.899-7.127t5.177-5.161 7.127-1.899 7.111 1.899 5.161 5.161 1.899 7.111-1.899 7.127-5.161 5.177-7.127 1.899zM15.008 15.866l-3.127-5.245q-0.202-0.37-0.202-0.689t0.269-0.521q0.303-0.202 0.672-0.202t0.672 0.504l3.53 5.951 3.53-5.951q0.303-0.538 0.639-0.538t0.672 0.235q0.336 0.202 0.336 0.504t-0.235 0.706l-3.127 5.245h2.521q0.84 0 0.84 0.874 0 0.84-0.84 0.84h-3.463v1.345h3.463q0.84 0 0.84 0.874 0 0.84-0.84 0.84h-3.463v2.858q0 0.572-0.168 0.807t-0.706 0.235-0.723-0.235-0.185-0.807v-2.858h-3.396q-0.874 0-0.874-0.874 0-0.471 0.219-0.656t0.622-0.185h3.429v-1.345h-3.396q-0.874 0-0.874-0.874 0-0.471 0.219-0.656t0.622-0.185h2.521z"></path>
</svg>
