<svg style="position: absolute; width: 0; height: 0;" width="0" height="0" version="1.1" xmlns="http://www.w3.org/2000/svg" xmlns:xlink="http://www.w3.org/1999/xlink">
<defs>
<symbol id="icon-reservation" viewBox="0 0 1024 1024">
<title>reservation</title>
<path class="path1" d="M872 914h-720q-37 0-63.5-26t-26.5-63v-492h900v492q0 50-44 76-22 13-46 13zM643 466l-184 171-61-70-43 38 98 116 229-214zM62 244q0-37 26.5-63t63.5-26h95q7-20 24-32.5t39-12.5q14 0 27 6t22 16 14 23h278q8-20 25-32.5t38-12.5q15 0 27.5 6t22 16 13.5 23h95q37 0 63.5 26t26.5 63v45h-900v-45zM692 244h45v-89h-45v89zM287 244h45v-89h-45v89z"></path>
</symbol>
<symbol id="icon-record" viewBox="0 0 1024 1024">
<title>record</title>
<path class="path1" d="M718 240q0-19 14-33t33-14 33 14q7 6 10.5 15t3.5 18q0 19-14 33t-33 14q-9 0-18-3.5t-15-10.5q-14-14-14-33zM594 162q0-7 2-14t5.5-13.5 8.5-12.5q17-16 40-16t39.5 16.5 16.5 39.5-16.5 39.5-39.5 16.5-39.5-16.5-16.5-39.5zM423 137q0-27 19-46 5-5 10-8.5t11-6 12.5-3.5 12.5-1q28 0 47 19 6 6 10 13.5t6.5 16 2.5 16.5q0 13-5 25t-14 21q-5 5-10.5 8.5t-11 6-12 4-13.5 1.5q-27 0-46-19.5t-19-46.5zM212 147q0-35 25-60 12-12 27.5-18.5t32-6.5 32 6.5 27.5 18.5q25 25 25 59.5t-25 59.5-60 25q-16 0-31.5-6.5t-27.5-18.5q-25-25-25-59zM605 251h-221q-56 4-95 45t-39 98q0 38 18 70t49 52l3 2 13 11q50 62-8 215l-8 20q-5 13-7.5 26.5t-2.5 27.5q0 60 42 102t101 42q52 0 91-33v0q109-90 172.5-218.5t65.5-275.5v-5q0-73-50.5-125t-123.5-54z"></path>
</symbol>
<symbol id="icon-activity" viewBox="0 0 1024 1024">
<title>activity</title>
<path class="path1" d="M512 962q-73 0-142-23t-124-64.5-96.5-96.5-64.5-124-23-142q0-91 36-174.5t96-143.5 143.5-96 174.5-36 174.5 36 143.5 96 96 143.5 36 174.5q0 171-114 299-109 123-272 146-32 5-64 5zM742 320q0-5-0.5-9t-2-8-3.5-7.5-5-6.5q-13-13-33-13h-360q-19 0-31 12-4 4-6.5 7.5t-4 7.5-2.5 8 0 9v389q-1 17 13 31 13 12 31 13h360q19 0 32-14 12-13 12-30v-389zM680 708h-323q-7 0-13-5-3-3-4-6t-1-6v-352q0-3 1-6.5t4-6.5q5-5 13-5h323q2 0 4 1h2q2 1 3.5 2t2.5 2q5 5 5 13v352q0 2-1 3v4q-1 1-2 2.5t-2 2.5q-4 5-12 5zM672 409q-6-6-16-6h-75v-42q0-6-2-10.5t-5-8.5q-2-2-4.5-3t-5.5-2-6-1q-10 1-16 7-6 7-6 18v42h-150q-5 0-9 1.5t-7 4.5q-6 7-6 16 0 4 1.5 8t4.5 7q5 6 16 6h131q-18 31-30 47-7 9-14 17.5t-15 16.5q-15 13-31 28-17 13-53 38-8 5-11 15-1 9 5 17t15 11q4 1 8.5 0t9.5-5q24-17 49-38 22-20 36-35 18-18 36-45 6-9 14-20v128q0 11-5 15-5 5-11 5-7 1-14 0-6 0-21-3-11-2-20 2-2 1-4 3t-3.5 4.5-2.5 6.5q-2 8 2 17 1 2 2.5 3.5l2.5 2.5 4 2q1 1 3 1.5t5 1.5q18 4 29 5h32q6 0 11.5-2t10.5-6q6-4 10.5-9t7.5-11q2-3 3-7t2-9 1-10v-187h75q5 0 9-1.5t7-4.5q1-2 2.5-4.5t2-5.5 1.5-5q0-10-6-16z"></path>
</symbol>
<symbol id="icon-coupon" viewBox="0 0 1024 1024">
<title>coupon</title>
<path class="path1" d="M798 962h-572q-51 0-87-36t-36-87v-582q189 86 400 86 209 0 418-89v585q0 33-16.5 61.5t-45 45-61.5 16.5zM644 693q0-5-3.5-8.5t-7.5-3.5h-103v-44h103q4 0 7.5-3t3.5-8v-22q0-3-1.5-5.5t-4-4-5.5-1.5h-86l93-98q6-8 0-16l-15-15q-7-8-14 0l-103 108-104-108q-2-2-4.5-3t-5 0-4.5 3l-15 15q-7 8 0 16l94 98h-86q-3 0-5.5 1.5t-4 4-1.5 5.5v22q0 11 11 11h102v44h-102q-5 0-8 3.5t-3 8.5v22q0 4 3 7.5t8 3.5h102v78q0 4 3.5 7.5t7.5 3.5h23q5 0 8-3.5t3-7.5v-78h103q3 0 5.5-1.5t4-4 1.5-5.5v-22zM105 168q4-29 21-53.5t43.5-38.5 56.5-14h572q46 0 80 30t41 74q-80 37-160.5 60t-148 31-134.5 6-119-11-102.5-24-84.5-29-65-31z"></path>
</symbol>
<symbol id="icon-customize" viewBox="0 0 1024 1024">
<title>customize</title>
<path class="path1" d="M879 330q-3 3-6 5.5t-6 3.5-5.5 1.5-5.5 0-5.5-1.5-5.5-3.5-7-5.5l-149-150q-12-11-12-20.5t12-20.5l61-61q7-8 17-10.5t20 0 17 10.5l137 136q11 11 11 27t-11 27zM831 379l-435 434q-3 3-6.5 4.5t-7 1.5-7.5-1.5-6-4.5l-164-163q-5-6-5-14t5-13l435-435q4-4 9-5t9.5 0 8.5 5l164 163q1 2 2.5 4.5t2 4.5 0.5 4.5-0.5 5-2 5-2.5 4.5zM279 485l-61-60 114-115-29-30-115 115-54-54 114-115-30-30-114 115-29-28q-13-12-13-30 0-9 3.5-16t9.5-14l145-143q12-13 30-13t30 13l204 201-203 201q0 1-1 2zM100 932l-15 6-4-4 5-16zM109 853l57 57-60 21-18-18zM115 832l63-182 191 190-183 63zM745 540l204 202q6 6 9.5 14t3.5 16-3.5 15.5-9.5 13.5l-145 144q-12 12-30 12t-30-12l-32-31 105-106-29-30-106 106-55-54 106-106-30-30-105 106-58-57q1-1 205-203z"></path>
</symbol>
<symbol id="icon-voucher" viewBox="0 0 1024 1024">
<title>voucher</title>
<path class="path1" d="M937 610q7 6 11.5 10t7.5 9.5 4.5 12.5 1.5 17v147q0 31-22 52.5t-53 21.5h-750q-31 0-53-21.5t-22-52.5v-147q0-8 2-16t8.5-17.5 16.5-15.5q73-24 73-98 0-35-22-59.5t-53-38.5q-5-3-9.5-6.5t-7-7-4.5-7.5-2.5-9-1-9-0.5-10v-147q0-31 22-52.5t53-21.5h750q31 0 53 21.5t22 52.5v147q0 18-4.5 28t-20.5 21q-43 22-59 43t-16 55q0 23 7.5 40t23.5 30.5 44 27.5zM662 573q0-5-3.5-8.5t-9.5-3.5h-112v-49h112q6 0 9.5-3.5t3.5-8.5v-25q0-5-3.5-8.5t-9.5-3.5h-94l102-108q8-9 0-17l-16-17q-8-9-16 0l-113 119-114-119q-8-9-16 0l-15 17q-8 8 0 17l102 108h-94q-4 0-7 1.5t-4.5 4.5-1.5 6v25q0 12 13 12h112v49h-112q-6 0-9.5 3.5t-3.5 8.5v25q0 5 3.5 8.5t9.5 3.5h112v86q0 2 0.5 4t2 3.5 3 2.5 3 1.5 4.5 0.5h24q6 0 9.5-3.5t3.5-8.5v-86h112q6 0 9.5-3.5t3.5-8.5v-25z"></path>
</symbol>
<symbol id="icon-ecard" viewBox="0 0 1024 1024">
<title>ecard</title>
<path class="path1" d="M893 853h-762q-14 0-27-6.5t-22-16.5-14.5-24.5-5.5-30.5v-358h900v358q0 32-20 55t-49 23zM424 511l-56 170-4 16h-1l-4-16-55-170h-42l83 233h37l83-233h-41zM531 511h-39v233h39v-233zM733.5 531q-21.5-20-60.5-20h-89v233h39v-89h50q39 0 60.5-19.5t21.5-52.5q0-32-21.5-52zM673 624h-50v-82h50q22 0 32.5 12t10.5 29.5-10.5 29-32.5 11.5zM62 249q0-32 20-55t49-23h762q29 0 49 23t20 55v86h-900v-86z"></path>
</symbol>
<symbol id="icon-more" viewBox="0 0 1024 1024">
<title>more</title>
<path class="path1" d="M880 921h-736q-34 0-58-24t-24-58v-654q0-34 24-58t58-24h736q22 0 41 11t30 30 11 41v654q0 22-11 41t-30 30-41 11zM335 508q0-27-19-45.5t-45-18.5h-22q-26 0-45 18.5t-19 45.5v22q0 26 19 45t45 19h22q26 0 45-19t19-45v-22zM594 508q0-27-19-45.5t-45-18.5h-22q-26 0-45 18.5t-19 45.5v22q0 17 8.5 32t23.5 23.5 32 8.5h22q26 0 45-19t19-45v-22zM853 508q0-27-19-45.5t-46-18.5h-21q-17 0-32 8.5t-23.5 23.5-8.5 32v22q0 10 3 20t9 17.5 14 13.5 18 9.5 20 3.5h21q13 0 25-5t20.5-14 14-20.5 5.5-24.5v-22z"></path>
</symbol>
<symbol id="icon-cart" viewBox="0 0 1024 1024">
<title>cart</title>
<path class="path1" d="M896 241q7 0 12.5 0.5t10.5 1.5 9 3l8 2 12 7q3 2 5 4.5t3 4.5q6 10 5 21v8q0 2-1 6t-2 6l-12 33-19 55-21 59q-12 36-16 47-6 17-13.5 29.5t-16.5 19.5q-18 14-44 14h-479l14 80h459q44 0 44 37 0 9-2.5 16.5t-6.5 14.5q-8 13-34 13h-478q-6 0-11.5-1t-10-2.5-8.5-4.5q-12-8-20-21-2-3-4-6.5t-4-6.5q-3-7-6-15-5-19-7-29l-5-26-11-51-13-69-15-77-39-200h-68q-14 0-22-6-9-7-17-16-2-6-4.5-11t-3.5-10-1.5-10.5-0.5-8.5q0-9 3-16.5t9-13.5q8-5 16-8 4-2 8.5-2.5t9.5-0.5h92q18 0 29 5l10 6q4 3 8 7 6 9 8 17l6 16q0 2 1 5.5t2 9.5v5l4 25 5 34h623zM743 749h8q2 0 4.5 0.5t4.5 0.5q8 2 16 5 6 2 10.5 4.5t9 6 8.5 7.5q12 12 19 26 6 15 6 31 0 3-0.5 6t-0.5 5.5-1 5.5q-1 9-4 15-7 14-19 27-6 6-12.5 10t-15.5 7q-15 7-33 7t-33-7q-16-7-26-17-2-1-3-2.5t-2.5-3.5-2.5-3.5-2.5-3.5-2.5-4l-2-2q-1-2-1.5-4t-1.5-4q-7-15-7-32 0-3 1-7v-8q1-4 2.5-8t3.5-8q3-7 7.5-13.5t10.5-12.5q5-6 12-10.5t14-7.5q5-2 10.5-3.5t11-2 11.5-0.5zM364 747h6q3 0 5.5 0.5t5.5 1 5.5 1 5.5 1.5 5 2q15 6 27 18 4 3 6.5 6t4.5 6 4 6.5 4 7.5q3 8 5 16t2 16q0 16-7 31-2 5-5 9.5t-6.5 9-7.5 8.5q-12 11-27.5 17.5t-32.5 6.5q-18 0-33-6-15-7-27-18-12-13-18-27-6-15-6-31.5t6-31.5q3-8 7.5-14t10.5-12l9-7 8-6q5-3 10-5 4-1 8-3 2-1 4-1.5t4-0.5q4 0 8.5-0.5t8.5-0.5z"></path>
</symbol>
<symbol id="icon-wallet" viewBox="0 0 1024 1024">
<title>wallet</title>
<path class="path1" d="M858 270h-704q-17 0-28.5-2.5t-20-10.5-8.5-22l761-34v-69q0-40-27.5-55t-76.5-15l-622 104q-39 9-54.5 25.5t-15.5 43.5v623q0 43 30.5 73.5t73.5 30.5h692q43 0 73.5-30.5t30.5-73.5v-484q0-29-14-52.5t-38-37.5-52-14zM823 685q-19 0-34.5-9.5t-25-25-9.5-34.5q0-29 20.5-49t48.5-20q14 0 27 5.5t22 14.5 14.5 22 5.5 27q0 28-20 48.5t-49 20.5z"></path>
</symbol>
<symbol id="icon-sweepstake" viewBox="0 0 1024 1024">
<title>sweepstake</title>
<path class="path1" d="M598 903h277q4-1 8-3t7-4l4-6q3-2 4-4l4-4 2-4v-319h-306v344zM241 877q9 21 29 26h278v-344h-307v318zM962 380q-2-10-8.5-17.5t-11.5-9.5l-6-2h-95q6-5 12-10.5t12-13 11-16.5q16-26 16.5-59t-15-63-42-48-60.5-20q-32-2-63 17-11 7-22.5 18t-22.5 24q-16 21-27.5 42.5t-17.5 38.5q-1 1-1.5 3t-1.5 3q-25-10-50-9h-1q-13 0-25.5 2t-24.5 7q-2-7-5.5-16t-12.5-27-20.5-33.5-26-31-34-24.5-41.5-9q-32 0-58 10.5t-40.5 27.5-21.5 30.5-11 26.5l35 12q1-3 2.5-8t8.5-17 16-21 26-17 38-8q23-1 44 14t35.5 39 22 40 12.5 30q-7 5-10.5 10.5t-3.5 10 3 9.5 9 10q-28 4-44.5 1t-41-14-44-22.5-52.5-26-67-22.5q-29-6-53.5-4.5t-41.5 4-31 9-22.5 11.5-14.5 11.5-7.5 9-2.5 3.5q1 1-0.5 8.5t6 13.5 22.5 2q59-54 169-19 12 4 61.5 27t78.5 34h-191q-2 0-6 2t-11 9.5-9 17.5v115h365v-144h50v144h364q0 1-0.5-23.5t-0.5-50.5 1-41zM570 328q-21 0-36.5-6.5t-15.5-16 15.5-16 37-6.5 36.5 6.5 15 16.5q0 6-7 11t-19 8-26 3zM782 340v-1l-150-1q33-15 33-32 0-3-1.5-6t-3.5-6-5.5-6-8.5-6l5-10q5-13 13-28.5t24-39.5 38.5-39 46.5-13q21 2 38 11.5t25 19 14 20.5q11 23 11 48t-11 43q-8 14-18 23.5t-17.5 13.5-15.5 6-11 2.5-6 0.5z"></path>
</symbol>
<symbol id="icon-QA" viewBox="0 0 1024 1024">
<title>QA</title>
<path class="path1" d="M900 714h-95l-52 68-91-68-287 1q-17-1-31.5-10t-22.5-23-8-30v-430q0-26 18-44t44-18h525q25 0 43.5 18t18.5 44v430q0 26-18.5 44t-43.5 18zM617 624h49v-50h-49v50zM725 288q-11-9-23.5-15.5t-27.5-10-32-3.5q-49 0-79 27t-36 77l45 5q6-37 24.5-54.5t46.5-17.5 48 19.5 20 44.5q0 5-1 9.5t-2.5 8.5-3.5 8q-3 6-10.5 14.5t-18.5 18.5q-23 20-32 30-5 8-9.5 15t-7.5 14q-2 5-3 10t-2 10.5-1.5 11.5-0.5 13v13h42q1-27 4-38 3-12 9-21 4-4 10.5-11.5t17.5-16.5q32-28 43-48t11-44q0-40-31-69zM538 756v17q0 19-13.5 32.5t-31.5 13.5h-211l-67 49-38-49h-69q-19 0-32.5-13.5t-13.5-32.5v-315q0-19 13.5-32.5t32.5-13.5l162-4v270q-2 39 13 55 4 5 9.5 8.5t10.5 6 10.5 4 10 2.5 8 1.5 5.5 0.5h201z"></path>
</symbol>
</defs>
</svg>
