<?xml version="1.0" encoding="utf-8"?>
<!-- Generated by IcoMoon.io -->
<!DOCTYPE svg PUBLIC "-//W3C//DTD SVG 1.1//EN" "http://www.w3.org/Graphics/SVG/1.1/DTD/svg11.dtd">
<svg version="1.1" xmlns="http://www.w3.org/2000/svg" xmlns:xlink="http://www.w3.org/1999/xlink" width="32" height="32" viewBox="0 0 32 32">
<path fill="#444" d="M16 2.594q2.719 0 5.219 1.063 1.188 0.5 2.266 1.219t2 1.641 1.641 2 1.219 2.266q1.063 2.5 1.063 5.219t-1.063 5.219q-1 2.406-2.859 4.266t-4.266 2.859q-1.25 0.531-2.563 0.797t-2.656 0.266q-2.719 0-5.219-1.063-2.406-1-4.266-2.859t-2.859-4.266q-1.063-2.5-1.063-5.219t1.063-5.219q1-2.406 2.875-4.25 0.594-0.625 1.281-1.156t1.422-0.969 1.547-0.75q1.25-0.531 2.563-0.797t2.656-0.266zM16 1.938q-2.281 0-4.438 0.719t-3.875 2.016-3.016 3.031-2.016 3.875-0.719 4.422q0 1.438 0.297 2.828t0.828 2.641 1.297 2.391 1.703 2.078 2.078 1.703 2.391 1.297 2.641 0.828 2.828 0.297q2.844 0 5.453-1.125t4.484-3 3-4.484 1.125-5.453-1.125-5.453-3-4.484-4.484-3-5.453-1.125zM16.156 22.157q-0.406-0.375-0.969-0.375t-0.969 0.375q-0.125 0.125-0.219 0.266t-0.141 0.313-0.047 0.359q0 0.563 0.406 0.938 0.156 0.125 0.297 0.219t0.313 0.125 0.359 0.031q0.563 0 0.969-0.375t0.406-0.938q0-0.281-0.094-0.516t-0.313-0.422zM19.25 8.844q-1.25-1.063-3.313-1.063-2.125 0-3.906 1.094v2.125q1.531-1.5 3.594-1.5 1.281 0 2.047 0.656t0.766 1.688q0 0.969-0.5 1.719-0.25 0.375-0.656 0.766t-0.969 0.828q-1.156 0.875-1.594 1.656-0.094 0.125-0.156 0.266t-0.109 0.297-0.078 0.313l-0.063 0.313q-0.031 0.156-0.047 0.344t-0.016 0.344v0.906h1.875v-0.813q0-0.938 0.375-1.453t1.469-1.422q1.375-1.094 1.953-2.078t0.578-2.203q0-1.719-1.25-2.781z"></path>
</svg>
