<?xml version="1.0" encoding="utf-8"?>
<!-- Generated by IcoMoon.io -->
<!DOCTYPE svg PUBLIC "-//W3C//DTD SVG 1.1//EN" "http://www.w3.org/Graphics/SVG/1.1/DTD/svg11.dtd">
<svg version="1.1" xmlns="http://www.w3.org/2000/svg" xmlns:xlink="http://www.w3.org/1999/xlink" width="32" height="32" viewBox="0 0 32 32">
<path fill="#444" d="M30.009 29.962q-0.028 0.057-0.085 0.142t-0.326 0.241-0.665 0.156q-0.142 0-0.269-0.014t-0.227-0.042-0.184-0.071-0.142-0.085-0.099-0.099-0.071-0.085l-0.057-0.057-0.028-0.057v-0.028q-0.028-0.566-0.085-1.473t-0.467-2.804-1.062-2.69q-0.878-1.104-2.478-2.535t-2.308-1.982-1.133-0.864q0.057-0.057 0.184-0.156t0.453-0.467 0.637-0.779 0.68-1.090 0.637-1.388 0.453-1.671 0.184-1.982q0-1.274-0.439-2.365t-1.062-1.798-1.458-1.274-1.458-0.85-1.274-0.481q-0.311 0.34-0.765 0.34-0.255 0-0.51-0.142-0.255 0.142-0.481 0.142-0.283 0-0.595-0.198-0.283 0.198-0.566 0.198-0.227 0-0.425-0.085t-0.34-0.255q-0.651 0.198-1.274 0.481t-1.458 0.85-1.458 1.274-1.062 1.798-0.439 2.365q0 1.020 0.184 1.982t0.467 1.685 0.623 1.373 0.68 1.090 0.623 0.765 0.481 0.467l0.17 0.17q-0.425 0.311-1.133 0.864t-2.308 1.982-2.478 2.535q-1.331 1.643-1.586 6.627-0.028 0.198-0.028 0.34-0.028 0.057-0.085 0.142t-0.326 0.241-0.665 0.156-0.665-0.127-0.326-0.269l-0.085-0.142q0.057-0.085 0-0.581t0.085-1.515 0.368-2.067 0.821-2.28 1.416-2.138q1.444-1.558 2.52-2.506t1.444-1.090l0.34-0.17q-0.113-0.113-0.297-0.34t-0.637-0.977-0.807-1.572-0.651-2.082-0.297-2.563q0-1.331 0.524-2.648t1.416-2.365 1.996-1.869 2.322-1.26 2.351-0.439q0.283 0 0.566 0.198 0.312-0.198 0.595-0.198 0.227 0 0.481 0.142 0.142-0.057 0.255-0.099t0.255-0.042q1.416 0 2.945 0.708t2.775 1.855 2.067 2.761 0.821 3.257q0 3.936-2.322 7.052l-0.368 0.481q0.028 0 0.127 0.042t0.453 0.269 0.807 0.595 1.232 1.119 1.685 1.742q2.69 2.917 2.69 8.581z"></path>
</svg>
