<?xml version="1.0" encoding="utf-8"?>
<!-- Generated by IcoMoon.io -->
<!DOCTYPE svg PUBLIC "-//W3C//DTD SVG 1.1//EN" "http://www.w3.org/Graphics/SVG/1.1/DTD/svg11.dtd">
<svg version="1.1" xmlns="http://www.w3.org/2000/svg" xmlns:xlink="http://www.w3.org/1999/xlink" width="32" height="32" viewBox="0 0 32 32">
<path fill="#444" d="M16.016 2.609q2.719 0 5.219 1.031 1.188 0.531 2.25 1.25t2 1.625q0.625 0.625 1.141 1.313t0.953 1.422 0.781 1.547q1.063 2.5 1.063 5.219t-1.063 5.219q-1.031 2.406-2.875 4.266t-4.25 2.859q-1.25 0.531-2.563 0.797t-2.656 0.266q-2.75 0-5.219-1.063-2.406-1-4.266-2.859t-2.891-4.266q-1.063-2.5-1.063-5.219t1.063-5.219q1.031-2.406 2.875-4.281 0.625-0.594 1.297-1.125t1.422-0.969 1.563-0.781q1.219-0.5 2.531-0.766t2.688-0.266zM16.016 1.953q-2.313 0-4.453 0.719t-3.859 2.016-3.031 3.016-2.016 3.875-0.703 4.438q0 2.844 1.109 5.453t3 4.484 4.484 2.984 5.469 1.109q2.281 0 4.422-0.703t3.875-2 3.031-3.031 2-3.875 0.703-4.422q0-2.875-1.109-5.469t-2.984-4.484-4.484-3-5.453-1.109zM16.484 16.672q-0.219 0.375-0.328 0.625t-0.172 0.375q-0.281-0.625-1.5-2.875h-0.969l1.781 3.031h-1.469v0.656h1.719v0.938h-1.719v0.688h1.719v1.313h0.813v-1.313h1.656v-0.688h-1.656v-0.938h1.656v-0.656h-1.406l1.781-3.031h-0.906zM17.984 10.703h-4.063q-0.219 0.094-0.563 0.266t-1.25 0.906-1.609 1.656-1.328 2.594-0.719 3.609q0 0.125 0.016 0.297t0.125 0.703 0.313 1.031 0.656 1.125 1.063 1.109 1.594 0.875 2.203 0.516h3.063q1.219-0.125 2.203-0.516t1.594-0.875 1.063-1.109 0.656-1.125 0.313-1.031 0.125-0.719 0.016-0.281q-0.25-5.281-3.969-8.125-0.844-0.625-1.5-0.906zM20.516 23.672q-1.25 0.813-3.094 1.031h-2.938q-1.844-0.219-3.094-1.031-0.969-0.625-1.563-1.656-0.219-0.375-0.359-0.781t-0.203-0.734-0.094-0.484-0.031-0.281q0.063-1.094 0.297-2.109t0.609-1.922q0.344-0.719 0.766-1.359t0.953-1.203q0.656-0.688 1.266-1.109t1.047-0.609h3.75q0.25 0.094 0.531 0.266t0.813 0.578 0.969 0.875q1.063 1.125 1.719 2.563 0.375 0.906 0.609 1.922t0.297 2.109q-0.031 1.156-0.688 2.281-0.281 0.5-0.672 0.922t-0.891 0.734zM13.703 10.016h4.5l1.5-2.875q0.063-0.563-0.469-0.563-0.094 0-0.188 0.031l-1.563 0.656-1.219-1.25q-0.094-0.156-0.281-0.156v0h-0.063l-0.281 0.156-1.219 1.25-1.563-0.656q-0.031 0-0.078-0.016t-0.109-0.016q-0.219 0-0.344 0.141t-0.125 0.297v0.125zM14.141 7.922l0.438 0.188 0.344-0.344 1.031-1.094 1.031 1.094 0.344 0.344 0.438-0.188 0.938-0.406-0.938 1.781h-3.625l-0.938-1.781z"></path>
</svg>
