<?xml version="1.0" encoding="utf-8"?>
<!-- Generated by IcoMoon.io -->
<!DOCTYPE svg PUBLIC "-//W3C//DTD SVG 1.1//EN" "http://www.w3.org/Graphics/SVG/1.1/DTD/svg11.dtd">
<svg version="1.1" xmlns="http://www.w3.org/2000/svg" xmlns:xlink="http://www.w3.org/1999/xlink" width="32" height="32" viewBox="0 0 32 32">
<path fill="#444" d="M16.016 2.609q2.719 0 5.219 1.031 1.188 0.531 2.25 1.25t2 1.625q0.625 0.625 1.141 1.313t0.953 1.422 0.781 1.547q1.063 2.5 1.063 5.219t-1.063 5.219q-1.031 2.406-2.875 4.266t-4.25 2.859q-1.25 0.531-2.563 0.797t-2.656 0.266q-2.75 0-5.219-1.063-2.406-1-4.266-2.859t-2.891-4.266q-1.063-2.5-1.063-5.219t1.063-5.219q1.031-2.406 2.875-4.281 0.625-0.594 1.297-1.125t1.422-0.969 1.563-0.781q1.219-0.5 2.531-0.766t2.688-0.266zM16.016 1.953q-2.313 0-4.453 0.719t-3.859 2.016-3.031 3.016-2.016 3.875-0.703 4.438q0 2.844 1.109 5.453t3 4.484 4.484 2.984 5.469 1.109q2.281 0 4.422-0.703t3.875-2 3.031-3.031 2-3.875 0.703-4.422q0-2.875-1.109-5.469t-2.984-4.484-4.484-3-5.453-1.109zM20.047 7.516h-8.031q-0.219 0.969-0.703 1.734t-1.016 1.141-1.094 0.625-0.844 0.313-0.344 0.063v4.219q0.219 2.031 1.141 3.828t2.047 2.891 2.266 1.891 1.828 1.141 0.75 0.344q0.156-0.063 0.406-0.188t1.016-0.563 1.469-0.953 1.594-1.375 1.578-1.828 1.234-2.344 0.734-2.844v-4.219q-0.594 0-1.625-0.563-1.906-1.094-2.406-3.313zM23.359 15.578q-0.094 0.75-0.281 1.484t-0.5 1.438-0.688 1.359q-1 1.625-2.563 2.938-0.906 0.781-1.781 1.313t-1.5 0.813q-1.75-0.781-3.281-2.125-0.781-0.656-1.422-1.391t-1.141-1.547q-1.219-1.969-1.5-4.281v-3.625q0.313-0.094 0.672-0.234t0.703-0.359q1.844-1.063 2.5-3.156h6.938q0.25 0.813 0.688 1.469t0.875 1.031 0.906 0.656q0.375 0.219 0.719 0.359t0.656 0.234v3.625zM16.734 11.859h-1.406v2.781h-2.719v1.406h2.719v3.781h1.406v-3.781h2.75v-1.406h-2.75v-2.781z"></path>
</svg>
