<?xml version="1.0" encoding="utf-8"?>
<!-- Generated by IcoMoon.io -->
<!DOCTYPE svg PUBLIC "-//W3C//DTD SVG 1.1//EN" "http://www.w3.org/Graphics/SVG/1.1/DTD/svg11.dtd">
<svg version="1.1" xmlns="http://www.w3.org/2000/svg" xmlns:xlink="http://www.w3.org/1999/xlink" width="32" height="32" viewBox="0 0 32 32">
<path fill="#444" d="M16.016 2.61q2.719 0 5.219 1.031 1.188 0.531 2.25 1.25t2 1.641 1.656 1.984 1.219 2.281q1.063 2.5 1.063 5.219t-1.063 5.219q-1.031 2.406-2.875 4.266t-4.25 2.859q-1.25 0.531-2.563 0.797t-2.656 0.266q-2.75 0-5.219-1.063-2.406-1-4.266-2.859t-2.891-4.266q-1.063-2.5-1.063-5.219t1.063-5.219q1.031-2.406 2.875-4.281 0.375-0.344 0.766-0.688t0.813-0.656 0.859-0.578 0.891-0.5 0.953-0.453q1.219-0.5 2.531-0.766t2.688-0.266zM16.016 1.954q-2.313 0-4.453 0.719t-3.859 2.016-3.031 3.016-2.016 3.875-0.703 4.438q0 2.844 1.109 5.453t3 4.484 4.484 2.984 5.469 1.109q2.281 0 4.422-0.703t3.875-2 3.031-3.031 2-3.875 0.703-4.422q0-2.875-1.109-5.469t-2.984-4.484-4.484-3-5.453-1.109zM16.703 19.547q0.188 0 0.375 0.078t0.313 0.203 0.203 0.297 0.078 0.359q0 0.25-0.141 0.469t-0.359 0.344-0.469 0.125-0.469-0.125-0.344-0.344-0.125-0.469q0-0.938 0.938-0.938zM16.703 18.766q-0.688 0-1.188 0.5t-0.5 1.219q0 0.281 0.078 0.547t0.234 0.469 0.375 0.359 0.469 0.25 0.531 0.094q0.719 0 1.219-0.5t0.5-1.219q0-0.469-0.234-0.859t-0.625-0.625-0.859-0.234zM8.922 19.547q0.281 0 0.5 0.125t0.344 0.344 0.125 0.469q0 0.125-0.031 0.25t-0.094 0.234-0.156 0.188-0.203 0.141-0.219 0.094-0.266 0.031q-0.375 0-0.656-0.266t-0.281-0.672 0.281-0.672 0.656-0.266zM8.922 18.766q-0.688 0-1.188 0.5t-0.5 1.219 0.5 1.219 1.188 0.5q0.375 0 0.688-0.141t0.531-0.375 0.359-0.547 0.141-0.656q0-0.469-0.234-0.859t-0.625-0.625-0.859-0.234zM22.359 19.547q0.25 0 0.469 0.125t0.344 0.344 0.125 0.469q0 0.406-0.266 0.672t-0.672 0.266-0.672-0.266-0.266-0.672 0.266-0.672 0.672-0.266zM22.359 18.766q-0.719 0-1.219 0.5t-0.5 1.219 0.5 1.219 1.219 0.5q0.469 0 0.859-0.234t0.625-0.625 0.234-0.859-0.234-0.859-0.625-0.625-0.859-0.234zM12.391 20.047l-0.563-6.781h-4.188q-0.063 0-0.188 0.078t-0.453 0.344-0.625 0.625-0.594 1.031-0.453 1.453v4.063h1.125v-0.813h-0.375v-3.125q0.125-0.625 0.359-1.156t0.484-0.828 0.484-0.5 0.359-0.297l0.156-0.063h3.25l0.531 6.781h2.156v-0.813h-1.469zM8.891 15.016v1.625h-1.625v0.813h2.469v-2.438h-0.844zM25.203 10.579q0.125 0.031 0.188 0.094v6.844q-0.063 0.063-0.188 0.094h-11.406q-0.125 0-0.188-0.094v-6.844q0.063-0.063 0.188-0.094h11.406zM25.203 9.829h-11.406q-0.375 0-0.656 0.25t-0.281 0.594v6.844q0 0.344 0.281 0.594t0.656 0.25h11.406q0.25 0 0.469-0.109t0.344-0.297 0.125-0.438v-6.844q0-0.219-0.125-0.422t-0.344-0.313-0.469-0.109z"></path>
</svg>
