<?xml version="1.0" encoding="utf-8"?>
<!-- Generated by IcoMoon.io -->
<!DOCTYPE svg PUBLIC "-//W3C//DTD SVG 1.1//EN" "http://www.w3.org/Graphics/SVG/1.1/DTD/svg11.dtd">
<svg version="1.1" xmlns="http://www.w3.org/2000/svg" xmlns:xlink="http://www.w3.org/1999/xlink" width="32" height="32" viewBox="0 0 32 32">
<path fill="#444444" d="M16 0.992c-8.289 0-15.008 6.719-15.008 15.008s6.719 15.008 15.008 15.008 15.008-6.719 15.008-15.008-6.719-15.008-15.008-15.008zM15.949 26.718c-1.234 0-2.234-1-2.234-2.234s1-2.234 2.234-2.234c1.234 0 2.234 1 2.234 2.234s-1 2.234-2.234 2.234zM17.811 18.288c0 0.093-0.014 0.183-0.038 0.269-0.053 0.964-0.852 1.729-1.829 1.729s-1.776-0.765-1.829-1.729c-0.025-0.085-0.038-0.176-0.038-0.269l-1.028-8.331c0-1.592 1.303-2.895 2.895-2.895v0c1.592 0 2.895 1.303 2.895 2.895l-1.028 8.331z"></path>
</svg>
