<?xml version="1.0" encoding="utf-8"?>
<!-- Generated by IcoMoon.io -->
<!DOCTYPE svg PUBLIC "-//W3C//DTD SVG 1.1//EN" "http://www.w3.org/Graphics/SVG/1.1/DTD/svg11.dtd">
<svg version="1.1" xmlns="http://www.w3.org/2000/svg" xmlns:xlink="http://www.w3.org/1999/xlink" width="32" height="32" viewBox="0 0 32 32">
<path fill="#444444" d="M22.233 6.625v-3.105c0-0.854-0.699-1.553-1.553-1.553h-9.316c-0.854 0-1.553 0.699-1.553 1.553v3.105h-7.764v1.553h3.105v20.185c0 0.854 0.699 1.553 1.553 1.553h18.633c0.854 0 1.553-0.699 1.553-1.553v-20.185h3.105v-1.553h-7.764zM20.68 3.52v3.105h-9.316v-3.105h9.316zM25.338 28.363h-18.633v-20.185h18.633v20.185z"></path>
<path fill="#444444" d="M20.68 11.283h1.553v12.422h-1.553v-12.422z"></path>
<path fill="#444444" d="M16.798 23.705v-12.422h-1.553v12.422h0.776z"></path>
<path fill="#444444" d="M9.811 11.283h1.553v12.422h-1.553v-12.422z"></path>
</svg>
