<?xml version="1.0" encoding="utf-8"?>
<!-- Generated by IcoMoon.io -->
<!DOCTYPE svg PUBLIC "-//W3C//DTD SVG 1.1//EN" "http://www.w3.org/Graphics/SVG/1.1/DTD/svg11.dtd">
<svg version="1.1" xmlns="http://www.w3.org/2000/svg" xmlns:xlink="http://www.w3.org/1999/xlink" width="32" height="32" viewBox="0 0 32 32">
<path fill="#444444" d="M7.439 5.329c-1.499 0-2.724 1.218-2.724 2.724v16.416c0 1.499 1.225 2.716 2.724 2.716h16.424c1.499 0 2.717-1.218 2.717-2.716v-10.788l2.818-2.724v14.511c0 2.506-2.123 4.535-4.629 4.535h-18.329c-2.506 0-4.535-2.030-4.535-4.535v-18.134c0-2.506 2.030-4.816 4.535-4.816h14.511l-2.716 2.81h-10.796zM17.485 18.67l-6.089 1.725 1.741-6.050 4.348 4.325zM18.094 18.061l-4.356-4.317 9.57-9.508 4.356 4.317-9.57 9.508zM29.631 6.602l-1.304 1.296-4.356-4.325 1.304-1.296c0.484-0.476 1.241-0.5 1.686-0.054l2.724 2.701c0.445 0.445 0.422 1.202-0.055 1.678z"></path>
</svg>
