<?xml version="1.0" encoding="utf-8"?>
<!-- Generated by IcoMoon.io -->
<!DOCTYPE svg PUBLIC "-//W3C//DTD SVG 1.1//EN" "http://www.w3.org/Graphics/SVG/1.1/DTD/svg11.dtd">
<svg version="1.1" xmlns="http://www.w3.org/2000/svg" xmlns:xlink="http://www.w3.org/1999/xlink" width="34" height="32" viewBox="0 0 34 32">
<path fill="#444" d="M30.5 18.569v-13.357q0-0.209-0.152-0.361t-0.361-0.152h-25.686q-0.209 0-0.361 0.152t-0.152 0.361v13.357q0 0.209 0.152 0.361t0.361 0.152h25.686q0.209 0 0.361-0.152t0.152-0.361zM32.555 5.212v17.467q0 1.060-0.755 1.814t-1.814 0.755h-8.733q0 0.594 0.257 1.244t0.514 1.14 0.257 0.698q0 0.417-0.305 0.722t-0.722 0.305h-8.22q-0.417 0-0.722-0.305t-0.305-0.722q0-0.225 0.257-0.706t0.514-1.124 0.257-1.252h-8.733q-1.060 0-1.814-0.755t-0.755-1.814v-17.467q0-1.060 0.755-1.814t1.814-0.755h25.686q1.060 0 1.814 0.755t0.755 1.814z"></path>
</svg>
