<?xml version="1.0" encoding="utf-8"?>
<!-- Generated by IcoMoon.io -->
<!DOCTYPE svg PUBLIC "-//W3C//DTD SVG 1.1//EN" "http://www.w3.org/Graphics/SVG/1.1/DTD/svg11.dtd">
<svg version="1.1" xmlns="http://www.w3.org/2000/svg" xmlns:xlink="http://www.w3.org/1999/xlink" width="21" height="32" viewBox="0 0 21 32">
<path fill="#444" d="M11.429 26.281q0-0.464-0.339-0.803t-0.803-0.339-0.803 0.339-0.339 0.803 0.339 0.803 0.803 0.339 0.803-0.339 0.339-0.803zM18.283 23.425v-17.135q0-0.232-0.17-0.402t-0.402-0.17h-14.851q-0.232 0-0.402 0.17t-0.17 0.402v17.135q0 0.232 0.17 0.402t0.402 0.17h14.851q0.232 0 0.402-0.17t0.17-0.402zM20.568 6.29v19.42q0 1.178-0.839 2.017t-2.017 0.839h-14.851q-1.178 0-2.017-0.839t-0.839-2.017v-19.42q0-1.178 0.839-2.017t2.017-0.839h14.851q1.178 0 2.017 0.839t0.839 2.017z"></path>
</svg>
