<?xml version="1.0" encoding="utf-8"?>
<!-- Generated by IcoMoon.io -->
<!DOCTYPE svg PUBLIC "-//W3C//DTD SVG 1.1//EN" "http://www.w3.org/Graphics/SVG/1.1/DTD/svg11.dtd">
<svg version="1.1" xmlns="http://www.w3.org/2000/svg" xmlns:xlink="http://www.w3.org/1999/xlink" width="32" height="32" viewBox="0 0 32 32">
<path fill="#444" d="M20.528 17.29h-1.662v2.407h1.72q1.576 0 1.576-1.232 0-0.716-0.444-0.946t-1.189-0.229zM27.435 8.836q-1.347 0-2.307 0.946t-0.96 2.293q0 0.229 0.029 0.459t0.115 0.43l-4.070 0.43-2.866-2.465q0.459-0.287 0.802-0.702t0.53-0.946 0.186-1.103q0-1.347-0.946-2.293t-2.293-0.946q-0.888 0-1.634 0.43t-1.175 1.175-0.43 1.634q0 0.573 0.186 1.103t0.53 0.946 0.831 0.702l-2.866 2.465-3.41-0.344q0.057-0.229 0.1-0.473t0.043-0.502q0-1.347-0.96-2.293t-2.307-0.946q-0.86 0-1.619 0.43t-1.189 1.175-0.43 1.634q0 1.347 0.946 2.293t2.293 0.946q0.344 0 0.688-0.057l3.238 11.807h14.358l3.296-12.008q0.602 0.258 1.29 0.258 1.347 0 2.293-0.946t0.946-2.293-0.946-2.293-2.293-0.946zM12.016 23.194h-0.917l-2.551-6.706h0.946l2.063 5.99 2.149-5.99h0.917zM16.43 23.194h-0.86v-6.706h0.86v6.706zM20.585 20.471h-1.72v2.723h-0.86v-6.706h2.493q0.516 0 0.86 0.057t0.788 0.229 0.688 0.587 0.244 1.075q0 0.516-0.186 0.917t-0.444 0.602-0.631 0.33-0.659 0.158-0.573 0.029z"></path>
</svg>
